<svg id="Layer_1" data-name="Layer 1" xmlns="http://www.w3.org/2000/svg" viewBox="0 0 1632 361"><defs><style>.cls-1{fill:#fff;}</style></defs><title>Mono Logo White</title><rect class="cls-1" x="31" y="196.91" width="134.09" height="134.09"/><rect class="cls-1" x="191.91" y="196.91" width="134.09" height="134.09"/><rect class="cls-1" x="191.91" y="36" width="134.09" height="134.09"/><path class="cls-1" d="M352.82,196.91V331H486.91V196.91Zm67.31,100.72q0,10.35-1.84,14.51a14.13,14.13,0,0,1-6.06,6.64,19.77,19.77,0,0,1-10.13,2.46q-12.08,0-20.58-9.45l10-8.39a23.21,23.21,0,0,0,5.67,4.53,10.13,10.13,0,0,0,4.52,1.15,3.7,3.7,0,0,0,3.33-1.68c.72-1.13,1.09-3.6,1.09-7.42V254.32h14ZM470.26,316q-6.21,5.24-16.21,5.23a26.37,26.37,0,0,1-13.61-3.41,28,28,0,0,1-9.92-10.74l11.69-6.31q5.28,8.66,12.14,8.66a9.61,9.61,0,0,0,6-1.87,5.37,5.37,0,0,0,2.44-4.3,7,7,0,0,0-1.85-4.44q-1.83-2.22-8.11-6.79-11.94-8.7-15.43-13.42a15.87,15.87,0,0,1-3.48-9.43q0-6.79,5.79-11.65a21.49,21.49,0,0,1,14.3-4.86,24.79,24.79,0,0,1,10.43,2.26q4.95,2.26,10.72,8.25l-10.31,8.13q-5.42-6.75-11.05-6.75a7.28,7.28,0,0,0-4.48,1.31,3.7,3.7,0,0,0-1.74,2.95,4.73,4.73,0,0,0,1.24,3.11q1.69,1.95,10.21,8.39,8,5.94,9.65,7.5a26.23,26.23,0,0,1,6,7.3A17.26,17.26,0,0,1,470.26,316Z"/><path class="cls-1" d="M779.37,34V75.32H736.08V212.13H683.32V75.32H640V34Z"/><path class="cls-1" d="M924.07,34V75.32H851.34v27h53.27V143.6H851.34v27.22h72.73v41.31H798.57V34Z"/><path class="cls-1" d="M1080.05,34V75.32h-43.28V212.13H984V75.32H940.72V34Z"/><path class="cls-1" d="M1196.33,34a56.75,56.75,0,0,1,17.93,2.72,42.93,42.93,0,0,1,14.21,7.79,34.75,34.75,0,0,1,9.35,12.5,40.69,40.69,0,0,1,3.33,16.82v30.43a31.19,31.19,0,0,1-1.79,10.15,35.19,35.19,0,0,1-5,9.52,33.47,33.47,0,0,1-7.55,7.43,24.21,24.21,0,0,1-9.48,4.08,28.31,28.31,0,0,1,17.29,9.89,27.62,27.62,0,0,1,6.53,18.06v48.74H1188.9v-46q-.26-10.4-11-10.39h-4.1l-17.93-40.33h21.77c3.76,0,6.57-.62,8.45-1.86s2.82-3.67,2.82-7.3V83.73q0-5.45-2.69-7.42c-1.79-1.32-4.57-2-8.32-2H1152v137.8h-52.76V34Z"/><path class="cls-1" d="M1267,161.91h47.89v50.22H1267Z"/><path class="cls-1" d="M1434.27,34V160.18a52.31,52.31,0,0,1-4.1,20.9,49.6,49.6,0,0,1-28.3,27.22,58.48,58.48,0,0,1-21.39,3.83H1329V170.82h38.42q14.08-.25,14.08-13.61V34Z"/><path class="cls-1" d="M1593.83,34V74.33h-70.69q-10.76,0-11,10.64v7.17q0,10.64,11,10.64h33q12.54,0,21.13,3a33.79,33.79,0,0,1,13.83,8.53,32.56,32.56,0,0,1,7.55,13.49,64.57,64.57,0,0,1,2.31,18.06v23a54.05,54.05,0,0,1-2.43,16.2,38.51,38.51,0,0,1-7.69,13.86,36.78,36.78,0,0,1-13.7,9.65q-8.46,3.58-21,3.58h-89.13V171.81h72.22q11,0,11-10.64v-7.92q0-10.63-11-10.64h-33a63,63,0,0,1-18-2.47A41.39,41.39,0,0,1,1474,133a33.09,33.09,0,0,1-9.22-11.5,35.32,35.32,0,0,1-3.33-15.71V75.07A42.4,42.4,0,0,1,1464.74,58,37.24,37.24,0,0,1,1474,45a40.46,40.46,0,0,1,14.22-8.17,55.58,55.58,0,0,1,18-2.84Z"/><path class="cls-1" d="M640,248v83h961V248Zm47.5,17H659.33v21.59H681v6.06H659.33v21.68H687.5v6.06H652.42V258.9H687.5ZM817,320.35h-8.28l-24.41-51v51h-6.91V258.9h8.28l24.41,51v-51H817Zm98,0h-6.92V258.9H915Zm33.19,0h-6.91V292.19H922.86l-4.35-6.06h22.78V258.9h6.91Zm123.06,0-14.68-53.85H1056l-9.65,35.5h15.45l1.45,6.06h-18.6l-3.33,12.29h-7L1052,258.9h8.62l17.66,61.45Zm132.71,0h-8.28l-24.41-51v51h-6.91V258.9h8.28l24.4,51v-51H1204ZM1331.38,265h-20.83q-5.46,0-7.81,2.82t-2.34,8.28v27.13c0,3.65.78,6.4,2.34,8.28s4.17,2.82,7.81,2.82h20.83v6.06h-20.83a19.59,19.59,0,0,1-7-1.2,15.25,15.25,0,0,1-5.41-3.41,14.59,14.59,0,0,1-3.46-5.38,19.76,19.76,0,0,1-1.2-7.08V276.06a19.89,19.89,0,0,1,1.2-7,14.5,14.5,0,0,1,3.46-5.42,15.94,15.94,0,0,1,5.41-3.46,19.16,19.16,0,0,1,7-1.24h20.83Zm125.36,0h-28.16v21.59h21.67v6.06h-21.67v21.68h28.16v6.06h-35.08V258.9h35.08ZM1588,303.28a19.76,19.76,0,0,1-1.2,7.08,14.69,14.69,0,0,1-3.45,5.38,15.38,15.38,0,0,1-5.42,3.41,19.59,19.59,0,0,1-7,1.2h-8.71l-4.35-6.06h13.06q5.46,0,7.81-2.82c1.56-1.88,2.35-4.63,2.35-8.28V276.06c0-3.64-.79-6.4-2.35-8.28s-4.17-2.82-7.81-2.82H1553.6v55.39h-6.92V258.9h24.24a19.16,19.16,0,0,1,7,1.24,16.08,16.08,0,0,1,5.42,3.46,14.61,14.61,0,0,1,3.45,5.42,19.89,19.89,0,0,1,1.2,7Z"/></svg>