<svg id="Layer_1" data-name="Layer 1" xmlns="http://www.w3.org/2000/svg" xmlns:xlink="http://www.w3.org/1999/xlink" viewBox="0 0 364 99"><defs><style>.cls-1{fill:url(#linear-gradient);}.cls-2{fill:url(#linear-gradient-2);}.cls-3{fill:url(#linear-gradient-3);}.cls-4{fill:url(#linear-gradient-4);}.cls-5{fill:url(#linear-gradient-5);}.cls-6{fill:url(#linear-gradient-6);}.cls-7{fill:url(#linear-gradient-7);}.cls-8{fill:url(#linear-gradient-8);}.cls-9{fill:url(#linear-gradient-9);}.cls-10{fill:url(#linear-gradient-10);}.cls-11{fill:url(#linear-gradient-11);}.cls-12{fill:url(#linear-gradient-12);}.cls-13{fill:url(#linear-gradient-13);}.cls-14{fill:url(#linear-gradient-14);}.cls-15{fill:url(#linear-gradient-15);}.cls-16{fill:url(#linear-gradient-16);}.cls-17{fill:url(#linear-gradient-17);}.cls-18{fill:url(#linear-gradient-18);}.cls-19{fill:url(#linear-gradient-19);}.cls-20{fill:url(#linear-gradient-20);}.cls-21{fill:url(#linear-gradient-21);}.cls-22{fill:url(#linear-gradient-22);}.cls-23{fill:url(#linear-gradient-23);}.cls-24{fill:url(#linear-gradient-24);}.cls-25{fill:url(#linear-gradient-25);}.cls-26{fill:url(#linear-gradient-26);}.cls-27{fill:url(#linear-gradient-27);}.cls-28{fill:url(#linear-gradient-28);}.cls-29{fill:url(#linear-gradient-29);}.cls-30{fill:url(#linear-gradient-30);}.cls-31{fill:url(#linear-gradient-31);}.cls-32{fill:url(#linear-gradient-32);}.cls-33{fill:url(#linear-gradient-33);}.cls-34{fill:url(#linear-gradient-34);}.cls-35{fill:url(#linear-gradient-35);}.cls-36{fill:url(#linear-gradient-36);}.cls-37{fill:url(#linear-gradient-37);}.cls-38{fill:url(#linear-gradient-38);}.cls-39{fill:url(#linear-gradient-39);}.cls-40{fill:url(#linear-gradient-40);}.cls-41{fill:url(#linear-gradient-41);}.cls-42{fill:url(#linear-gradient-42);}.cls-43{fill:url(#linear-gradient-43);}.cls-44{fill:url(#linear-gradient-44);}.cls-45{fill:url(#linear-gradient-45);}.cls-46{fill:url(#linear-gradient-46);}.cls-47{fill:url(#linear-gradient-47);}.cls-48{fill:url(#linear-gradient-48);}.cls-49{fill:url(#linear-gradient-49);}.cls-50{fill:url(#linear-gradient-50);}.cls-51{fill:url(#linear-gradient-51);}.cls-52{fill:url(#linear-gradient-52);}.cls-53{fill:url(#linear-gradient-53);}.cls-54{fill:url(#linear-gradient-54);}.cls-55{fill:url(#linear-gradient-55);}.cls-56{fill:url(#linear-gradient-56);}.cls-57{fill:url(#linear-gradient-57);}.cls-58{fill:url(#linear-gradient-58);}.cls-59{fill:url(#linear-gradient-59);}.cls-60{fill:url(#linear-gradient-60);}.cls-61{fill:url(#linear-gradient-61);}.cls-62{fill:url(#linear-gradient-62);}.cls-63{fill:url(#linear-gradient-63);}.cls-64{fill:url(#linear-gradient-64);}.cls-65{fill:url(#linear-gradient-65);}.cls-66{fill:url(#linear-gradient-66);}.cls-67{fill:url(#linear-gradient-67);}.cls-68{fill:url(#linear-gradient-68);}.cls-69{fill:url(#linear-gradient-69);}.cls-70{fill:url(#linear-gradient-70);}.cls-71{fill:url(#linear-gradient-71);}.cls-72{fill:url(#linear-gradient-72);}.cls-73{fill:url(#linear-gradient-73);}.cls-74{fill:url(#linear-gradient-74);}.cls-75{fill:url(#linear-gradient-75);}.cls-76{fill:url(#linear-gradient-76);}.cls-77{fill:url(#linear-gradient-77);}.cls-78{fill:url(#linear-gradient-78);}.cls-79{fill:url(#linear-gradient-79);}.cls-80{fill:url(#linear-gradient-80);}.cls-81{fill:url(#linear-gradient-81);}.cls-82{fill:url(#linear-gradient-82);}.cls-83{fill:url(#linear-gradient-83);}.cls-84{fill:url(#linear-gradient-84);}.cls-85{fill:url(#linear-gradient-85);}.cls-86{fill:url(#linear-gradient-86);}.cls-87{fill:url(#linear-gradient-87);}.cls-88{fill:url(#linear-gradient-88);}.cls-89{fill:url(#linear-gradient-89);}.cls-90{fill:url(#linear-gradient-90);}.cls-91{fill:url(#linear-gradient-91);}.cls-92{fill:url(#linear-gradient-92);}.cls-93{fill:url(#linear-gradient-93);}.cls-94{fill:url(#linear-gradient-94);}.cls-95{fill:url(#linear-gradient-95);}.cls-96{fill:url(#linear-gradient-96);}.cls-97{fill:url(#linear-gradient-97);}.cls-98{fill:url(#linear-gradient-98);}.cls-99{fill:url(#linear-gradient-99);}.cls-100{fill:url(#linear-gradient-100);}.cls-101{fill:url(#linear-gradient-101);}.cls-102{fill:url(#linear-gradient-102);}.cls-103{fill:url(#linear-gradient-103);}.cls-104{fill:url(#linear-gradient-104);}.cls-105{fill:url(#linear-gradient-105);}.cls-106{fill:url(#linear-gradient-106);}.cls-107{fill:url(#linear-gradient-107);}.cls-108{fill:url(#linear-gradient-108);}.cls-109{fill:url(#linear-gradient-109);}.cls-110{fill:url(#linear-gradient-110);}.cls-111{fill:url(#linear-gradient-111);}.cls-112{fill:url(#linear-gradient-112);}.cls-113{fill:url(#linear-gradient-113);}.cls-114{fill:url(#linear-gradient-114);}.cls-115{fill:url(#linear-gradient-115);}.cls-116{fill:url(#linear-gradient-116);}.cls-117{fill:url(#linear-gradient-117);}.cls-118{fill:url(#linear-gradient-118);}.cls-119{fill:url(#linear-gradient-119);}.cls-120{fill:url(#linear-gradient-120);}.cls-121{fill:url(#linear-gradient-121);}.cls-122{fill:url(#linear-gradient-122);}</style><linearGradient id="linear-gradient" x1="14" y1="43" x2="28" y2="57" gradientUnits="userSpaceOnUse"><stop offset="0" stop-color="#27bc9c"/><stop offset="0.5" stop-color="#79fede"/><stop offset="0.5" stop-color="#25bb9b"/><stop offset="1" stop-color="#79fede"/></linearGradient><linearGradient id="linear-gradient-2" x1="35" y1="57" x2="49" y2="71" gradientUnits="userSpaceOnUse"><stop offset="0" stop-color="#cff"/><stop offset="0.5" stop-color="#a4ffff"/><stop offset="0.5" stop-color="#008165"/><stop offset="1" stop-color="#00452f"/></linearGradient><linearGradient id="linear-gradient-3" y1="57" x2="28" y2="71" xlink:href="#linear-gradient"/><linearGradient id="linear-gradient-4" y1="71" x2="49" y2="85" xlink:href="#linear-gradient-2"/><linearGradient id="linear-gradient-5" y1="71" x2="28" y2="85" xlink:href="#linear-gradient"/><linearGradient id="linear-gradient-6" y1="85" x2="49" y2="99" xlink:href="#linear-gradient-2"/><linearGradient id="linear-gradient-7" y1="85" x2="28" y2="99" xlink:href="#linear-gradient"/><linearGradient id="linear-gradient-8" y1="99" x2="49" y2="113" xlink:href="#linear-gradient-2"/><linearGradient id="linear-gradient-9" x1="14" y1="29" x2="28" y2="43" gradientUnits="userSpaceOnUse"><stop offset="0" stop-color="#9d5bb9"/><stop offset="0.5" stop-color="#dc9dfe"/><stop offset="0.5" stop-color="#9d5bb9"/><stop offset="1" stop-color="#dc9dfe"/></linearGradient><linearGradient id="linear-gradient-10" x1="35" y1="43" x2="49" y2="57" gradientUnits="userSpaceOnUse"><stop offset="0" stop-color="#ffe9ff"/><stop offset="0.5" stop-color="#ffc1ff"/><stop offset="0.5" stop-color="#5d287e"/><stop offset="1" stop-color="#204"/></linearGradient><linearGradient id="linear-gradient-11" x1="14" y1="15" x2="28" y2="29" xlink:href="#linear-gradient-9"/><linearGradient id="linear-gradient-12" x1="35" y1="29" x2="49" y2="43" xlink:href="#linear-gradient-10"/><linearGradient id="linear-gradient-13" x1="0" y1="15" x2="14" y2="29" xlink:href="#linear-gradient-9"/><linearGradient id="linear-gradient-14" x1="21" y1="29" x2="35" y2="43" xlink:href="#linear-gradient-10"/><linearGradient id="linear-gradient-15" x1="28" y1="15" x2="42" y2="29" xlink:href="#linear-gradient-9"/><linearGradient id="linear-gradient-16" x1="49" y1="29" x2="63" y2="43" xlink:href="#linear-gradient-10"/><linearGradient id="linear-gradient-17" x1="56" y1="15" x2="70" y2="29" xlink:href="#linear-gradient"/><linearGradient id="linear-gradient-18" x1="77" y1="29" x2="91" y2="43" xlink:href="#linear-gradient-2"/><linearGradient id="linear-gradient-19" x1="70" y1="15" x2="84" y2="29" xlink:href="#linear-gradient"/><linearGradient id="linear-gradient-20" x1="91" y1="29" x2="105" y2="43" xlink:href="#linear-gradient-2"/><linearGradient id="linear-gradient-21" x1="84" y1="15" x2="98" y2="29" xlink:href="#linear-gradient"/><linearGradient id="linear-gradient-22" x1="105" y1="29" x2="119" y2="43" xlink:href="#linear-gradient-2"/><linearGradient id="linear-gradient-23" x1="98" y1="15" x2="112" y2="29" xlink:href="#linear-gradient"/><linearGradient id="linear-gradient-24" x1="119" y1="29" x2="133" y2="43" xlink:href="#linear-gradient-2"/><linearGradient id="linear-gradient-25" x1="70" y1="29" x2="84" y2="43" gradientUnits="userSpaceOnUse"><stop offset="0" stop-color="#3498da"/><stop offset="0.5" stop-color="#6adafe"/><stop offset="0.5" stop-color="#3498da"/><stop offset="1" stop-color="#6adafe"/></linearGradient><linearGradient id="linear-gradient-26" x1="91" y1="43" x2="105" y2="57" gradientUnits="userSpaceOnUse"><stop offset="0" stop-color="#c2ffff"/><stop offset="0.5" stop-color="#98feff"/><stop offset="0.5" stop-color="#00629f"/><stop offset="1" stop-color="#002e62"/></linearGradient><linearGradient id="linear-gradient-27" y1="43" x2="84" y2="57" xlink:href="#linear-gradient-25"/><linearGradient id="linear-gradient-28" y1="57" x2="105" y2="71" xlink:href="#linear-gradient-26"/><linearGradient id="linear-gradient-29" x1="84" y1="43" x2="98" y2="57" xlink:href="#linear-gradient-25"/><linearGradient id="linear-gradient-30" x1="105" y1="57" x2="119" y2="71" xlink:href="#linear-gradient-26"/><linearGradient id="linear-gradient-31" x1="98" y1="43" x2="112" y2="57" xlink:href="#linear-gradient-25"/><linearGradient id="linear-gradient-32" x1="119" y1="57" x2="133" y2="71" xlink:href="#linear-gradient-26"/><linearGradient id="linear-gradient-33" y1="57" x2="84" y2="71" xlink:href="#linear-gradient-25"/><linearGradient id="linear-gradient-34" y1="71" x2="105" y2="85" xlink:href="#linear-gradient-26"/><linearGradient id="linear-gradient-35" y1="71" x2="84" y2="85" xlink:href="#linear-gradient-25"/><linearGradient id="linear-gradient-36" y1="85" x2="105" y2="99" xlink:href="#linear-gradient-26"/><linearGradient id="linear-gradient-37" x1="84" y1="71" x2="98" y2="85" xlink:href="#linear-gradient-25"/><linearGradient id="linear-gradient-38" x1="105" y1="85" x2="119" y2="99" xlink:href="#linear-gradient-26"/><linearGradient id="linear-gradient-39" x1="98" y1="71" x2="112" y2="85" xlink:href="#linear-gradient-25"/><linearGradient id="linear-gradient-40" x1="119" y1="85" x2="133" y2="99" xlink:href="#linear-gradient-26"/><linearGradient id="linear-gradient-41" x1="140" x2="154" y2="57" xlink:href="#linear-gradient"/><linearGradient id="linear-gradient-42" x1="161" x2="175" y2="71" xlink:href="#linear-gradient-2"/><linearGradient id="linear-gradient-43" x1="140" y1="57" x2="154" y2="71" xlink:href="#linear-gradient"/><linearGradient id="linear-gradient-44" x1="161" y1="71" x2="175" y2="85" xlink:href="#linear-gradient-2"/><linearGradient id="linear-gradient-45" x1="140" y1="71" x2="154" y2="85" xlink:href="#linear-gradient"/><linearGradient id="linear-gradient-46" x1="161" y1="85" x2="175" y2="99" xlink:href="#linear-gradient-2"/><linearGradient id="linear-gradient-47" x1="140" y1="85" x2="154" y2="99" xlink:href="#linear-gradient"/><linearGradient id="linear-gradient-48" x1="161" y1="99" x2="175" y2="113" xlink:href="#linear-gradient-2"/><linearGradient id="linear-gradient-49" x1="140" y1="29" x2="154" y2="43" xlink:href="#linear-gradient-9"/><linearGradient id="linear-gradient-50" x1="161" y1="43" x2="175" y2="57" xlink:href="#linear-gradient-10"/><linearGradient id="linear-gradient-51" x1="140" y1="15" x2="154" y2="29" xlink:href="#linear-gradient-9"/><linearGradient id="linear-gradient-52" x1="161" y1="29" x2="175" y2="43" xlink:href="#linear-gradient-10"/><linearGradient id="linear-gradient-53" x1="126" y1="15" x2="140" y2="29" xlink:href="#linear-gradient-9"/><linearGradient id="linear-gradient-54" x1="147" y1="29" x2="161" y2="43" xlink:href="#linear-gradient-10"/><linearGradient id="linear-gradient-55" x1="154" y1="15" x2="168" y2="29" xlink:href="#linear-gradient-9"/><linearGradient id="linear-gradient-56" x1="175" y1="29" x2="189" y2="43" xlink:href="#linear-gradient-10"/><linearGradient id="linear-gradient-57" x1="182" y1="28" x2="196" y2="42" xlink:href="#linear-gradient"/><linearGradient id="linear-gradient-58" x1="203" y1="42" x2="217" y2="56" xlink:href="#linear-gradient-2"/><linearGradient id="linear-gradient-59" x1="182" y1="42" x2="196" y2="56" xlink:href="#linear-gradient"/><linearGradient id="linear-gradient-60" x1="203" y1="56" x2="217" y2="70" xlink:href="#linear-gradient-2"/><linearGradient id="linear-gradient-61" x1="182" y1="56" x2="196" y2="70" xlink:href="#linear-gradient"/><linearGradient id="linear-gradient-62" x1="203" y1="70" x2="217" y2="84" xlink:href="#linear-gradient-2"/><linearGradient id="linear-gradient-63" x1="182" y1="70" x2="196" y2="84" xlink:href="#linear-gradient"/><linearGradient id="linear-gradient-64" x1="203" y1="84" x2="217" y2="98" xlink:href="#linear-gradient-2"/><linearGradient id="linear-gradient-65" x1="210" y1="28" x2="224" y2="42" xlink:href="#linear-gradient-25"/><linearGradient id="linear-gradient-66" x1="231" y1="42" x2="245" y2="56" xlink:href="#linear-gradient-26"/><linearGradient id="linear-gradient-67" x1="182" y1="14" x2="196" y2="28" xlink:href="#linear-gradient-25"/><linearGradient id="linear-gradient-68" x1="203" y1="28" x2="217" y2="42" xlink:href="#linear-gradient-26"/><linearGradient id="linear-gradient-69" x1="196" y1="14" x2="210" y2="28" xlink:href="#linear-gradient-25"/><linearGradient id="linear-gradient-70" x1="217" y1="28" x2="231" y2="42" xlink:href="#linear-gradient-26"/><linearGradient id="linear-gradient-71" x1="210" y1="14" x2="224" y2="28" xlink:href="#linear-gradient-25"/><linearGradient id="linear-gradient-72" x1="231" y1="28" x2="245" y2="42" xlink:href="#linear-gradient-26"/><linearGradient id="linear-gradient-73" x1="196" y1="42" x2="210" y2="56" gradientUnits="userSpaceOnUse"><stop offset="0" stop-color="#9ece39"/><stop offset="0.5" stop-color="#edfe80"/><stop offset="0.5" stop-color="#9ccd38"/><stop offset="1" stop-color="#edfe80"/></linearGradient><linearGradient id="linear-gradient-74" x1="217" y1="56" x2="231" y2="70" gradientUnits="userSpaceOnUse"><stop offset="0" stop-color="#ffffcd"/><stop offset="0.5" stop-color="#ffffa5"/><stop offset="0.5" stop-color="#6b9200"/><stop offset="1" stop-color="#2d5700"/></linearGradient><linearGradient id="linear-gradient-75" x1="196" y1="56" x2="210" y2="70" xlink:href="#linear-gradient-73"/><linearGradient id="linear-gradient-76" x1="217" y1="70" x2="231" y2="84" xlink:href="#linear-gradient-74"/><linearGradient id="linear-gradient-77" x1="210" y1="56" x2="224" y2="70" xlink:href="#linear-gradient-73"/><linearGradient id="linear-gradient-78" x1="231" y1="70" x2="245" y2="84" xlink:href="#linear-gradient-74"/><linearGradient id="linear-gradient-79" x1="210" y1="70" x2="224" y2="84" xlink:href="#linear-gradient-73"/><linearGradient id="linear-gradient-80" x1="231" y1="84" x2="245" y2="98" xlink:href="#linear-gradient-74"/><linearGradient id="linear-gradient-81" x1="238" y1="70" x2="252" y2="84" gradientUnits="userSpaceOnUse"><stop offset="0" stop-color="#c2c2c2"/><stop offset="0.5" stop-color="#fff"/><stop offset="0.5" stop-color="#c2c2c2"/><stop offset="1" stop-color="#fff"/></linearGradient><linearGradient id="linear-gradient-82" x1="259" y1="84" x2="273" y2="98" gradientUnits="userSpaceOnUse"><stop offset="0" stop-color="#fff"/><stop offset="0.5" stop-color="#fff"/><stop offset="0.5" stop-color="#888"/><stop offset="1" stop-color="#4e4e4e"/></linearGradient><linearGradient id="linear-gradient-83" x1="294" y1="0" x2="308" y2="14" xlink:href="#linear-gradient"/><linearGradient id="linear-gradient-84" x1="315" y1="14" x2="329" y2="28" xlink:href="#linear-gradient-2"/><linearGradient id="linear-gradient-85" x1="294" y1="14" x2="308" y2="28" xlink:href="#linear-gradient"/><linearGradient id="linear-gradient-86" x1="315" y1="28" x2="329" y2="42" xlink:href="#linear-gradient-2"/><linearGradient id="linear-gradient-87" x1="294" y1="28" x2="308" y2="42" xlink:href="#linear-gradient"/><linearGradient id="linear-gradient-88" x1="315" y1="42" x2="329" y2="56" xlink:href="#linear-gradient-2"/><linearGradient id="linear-gradient-89" x1="294" y1="42" x2="308" y2="56" xlink:href="#linear-gradient"/><linearGradient id="linear-gradient-90" x1="315" y1="56" x2="329" y2="70" xlink:href="#linear-gradient-2"/><linearGradient id="linear-gradient-91" x1="266" y1="70" x2="280" y2="84" gradientUnits="userSpaceOnUse"><stop offset="0" stop-color="#e67f24"/><stop offset="0.5" stop-color="#febf64"/><stop offset="0.5" stop-color="#e67e23"/><stop offset="1" stop-color="#ffc065"/></linearGradient><linearGradient id="linear-gradient-92" x1="287" y1="84" x2="301" y2="98" gradientUnits="userSpaceOnUse"><stop offset="0" stop-color="#ffffb0"/><stop offset="0.5" stop-color="#ffe589"/><stop offset="0.5" stop-color="#aa4800"/><stop offset="1" stop-color="#660600"/></linearGradient><linearGradient id="linear-gradient-93" x1="280" x2="294" y2="84" xlink:href="#linear-gradient-91"/><linearGradient id="linear-gradient-94" x1="301" x2="315" y2="98" xlink:href="#linear-gradient-92"/><linearGradient id="linear-gradient-95" x1="294" x2="308" y2="84" xlink:href="#linear-gradient-91"/><linearGradient id="linear-gradient-96" x1="315" x2="329" y2="98" xlink:href="#linear-gradient-92"/><linearGradient id="linear-gradient-97" x1="294" y1="56" x2="308" y2="70" xlink:href="#linear-gradient-91"/><linearGradient id="linear-gradient-98" x1="315" y1="70" x2="329" y2="84" xlink:href="#linear-gradient-92"/><linearGradient id="linear-gradient-99" x1="322" y1="14" x2="336" y2="28" xlink:href="#linear-gradient-91"/><linearGradient id="linear-gradient-100" x1="343" y1="28" x2="357" y2="42" xlink:href="#linear-gradient-92"/><linearGradient id="linear-gradient-101" x1="336" y1="14" x2="350" y2="28" xlink:href="#linear-gradient-91"/><linearGradient id="linear-gradient-102" x1="357" y1="28" x2="371" y2="42" xlink:href="#linear-gradient-92"/><linearGradient id="linear-gradient-103" x1="350" y1="14" x2="364" y2="28" xlink:href="#linear-gradient-91"/><linearGradient id="linear-gradient-104" x1="371" y1="28" x2="385" y2="42" xlink:href="#linear-gradient-92"/><linearGradient id="linear-gradient-105" x1="322" y1="28" x2="336" y2="42" xlink:href="#linear-gradient-91"/><linearGradient id="linear-gradient-106" x1="343" y1="42" x2="357" y2="56" xlink:href="#linear-gradient-92"/><linearGradient id="linear-gradient-107" x1="350" y1="56" x2="364" y2="70" xlink:href="#linear-gradient-25"/><linearGradient id="linear-gradient-108" x1="371" y1="70" x2="385" y2="84" xlink:href="#linear-gradient-26"/><linearGradient id="linear-gradient-109" x1="322" y1="42" x2="336" y2="56" xlink:href="#linear-gradient-25"/><linearGradient id="linear-gradient-110" x1="343" y1="56" x2="357" y2="70" xlink:href="#linear-gradient-26"/><linearGradient id="linear-gradient-111" x1="336" y1="42" x2="350" y2="56" xlink:href="#linear-gradient-25"/><linearGradient id="linear-gradient-112" x1="357" y1="56" x2="371" y2="70" xlink:href="#linear-gradient-26"/><linearGradient id="linear-gradient-113" x1="350" y1="42" x2="364" y2="56" xlink:href="#linear-gradient-25"/><linearGradient id="linear-gradient-114" x1="371" y1="56" x2="385" y2="70" xlink:href="#linear-gradient-26"/><linearGradient id="linear-gradient-115" x1="336" y1="56" x2="350" y2="70" xlink:href="#linear-gradient-9"/><linearGradient id="linear-gradient-116" x1="357" y1="70" x2="371" y2="84" xlink:href="#linear-gradient-10"/><linearGradient id="linear-gradient-117" x1="336" y1="70" x2="350" y2="84" xlink:href="#linear-gradient-9"/><linearGradient id="linear-gradient-118" x1="357" y1="84" x2="371" y2="98" xlink:href="#linear-gradient-10"/><linearGradient id="linear-gradient-119" x1="322" y1="70" x2="336" y2="84" xlink:href="#linear-gradient-9"/><linearGradient id="linear-gradient-120" x1="343" y1="84" x2="357" y2="98" xlink:href="#linear-gradient-10"/><linearGradient id="linear-gradient-121" x1="350" y1="70" x2="364" y2="84" xlink:href="#linear-gradient-9"/><linearGradient id="linear-gradient-122" x1="371" y1="84" x2="385" y2="98" xlink:href="#linear-gradient-10"/></defs><title>tetrjslogo</title><rect class="cls-1" x="14" y="43" width="14" height="14"/><path class="cls-2" d="M48,58V70H36V58H48m1-1H35V71H49V57Z" transform="translate(-21 -14)"/><rect class="cls-3" x="14" y="57" width="14" height="14"/><path class="cls-4" d="M48,72V84H36V72H48m1-1H35V85H49V71Z" transform="translate(-21 -14)"/><rect class="cls-5" x="14" y="71" width="14" height="14"/><path class="cls-6" d="M48,86V98H36V86H48m1-1H35V99H49V85Z" transform="translate(-21 -14)"/><rect class="cls-7" x="14" y="85" width="14" height="14"/><path class="cls-8" d="M48,100v12H36V100H48m1-1H35v14H49V99Z" transform="translate(-21 -14)"/><rect class="cls-9" x="14" y="29" width="14" height="14"/><path class="cls-10" d="M48,44V56H36V44H48m1-1H35V57H49V43Z" transform="translate(-21 -14)"/><rect class="cls-11" x="14" y="15" width="14" height="14"/><path class="cls-12" d="M48,30V42H36V30H48m1-1H35V43H49V29Z" transform="translate(-21 -14)"/><rect class="cls-13" y="15" width="14" height="14"/><path class="cls-14" d="M34,30V42H22V30H34m1-1H21V43H35V29Z" transform="translate(-21 -14)"/><rect class="cls-15" x="28" y="15" width="14" height="14"/><path class="cls-16" d="M62,30V42H50V30H62m1-1H49V43H63V29Z" transform="translate(-21 -14)"/><rect class="cls-17" x="56" y="15" width="14" height="14"/><path class="cls-18" d="M90,30V42H78V30H90m1-1H77V43H91V29Z" transform="translate(-21 -14)"/><rect class="cls-19" x="70" y="15" width="14" height="14"/><path class="cls-20" d="M104,30V42H92V30h12m1-1H91V43h14V29Z" transform="translate(-21 -14)"/><rect class="cls-21" x="84" y="15" width="14" height="14"/><path class="cls-22" d="M118,30V42H106V30h12m1-1H105V43h14V29Z" transform="translate(-21 -14)"/><rect class="cls-23" x="98" y="15" width="14" height="14"/><path class="cls-24" d="M132,30V42H120V30h12m1-1H119V43h14V29Z" transform="translate(-21 -14)"/><rect class="cls-25" x="70" y="29" width="14" height="14"/><path class="cls-26" d="M104,44V56H92V44h12m1-1H91V57h14V43Z" transform="translate(-21 -14)"/><rect class="cls-27" x="70" y="43" width="14" height="14"/><path class="cls-28" d="M104,58V70H92V58h12m1-1H91V71h14V57Z" transform="translate(-21 -14)"/><rect class="cls-29" x="84" y="43" width="14" height="14"/><path class="cls-30" d="M118,58V70H106V58h12m1-1H105V71h14V57Z" transform="translate(-21 -14)"/><rect class="cls-31" x="98" y="43" width="14" height="14"/><path class="cls-32" d="M132,58V70H120V58h12m1-1H119V71h14V57Z" transform="translate(-21 -14)"/><rect class="cls-33" x="70" y="57" width="14" height="14"/><path class="cls-34" d="M104,72V84H92V72h12m1-1H91V85h14V71Z" transform="translate(-21 -14)"/><rect class="cls-35" x="70" y="71" width="14" height="14"/><path class="cls-36" d="M104,86V98H92V86h12m1-1H91V99h14V85Z" transform="translate(-21 -14)"/><rect class="cls-37" x="84" y="71" width="14" height="14"/><path class="cls-38" d="M118,86V98H106V86h12m1-1H105V99h14V85Z" transform="translate(-21 -14)"/><rect class="cls-39" x="98" y="71" width="14" height="14"/><path class="cls-40" d="M132,86V98H120V86h12m1-1H119V99h14V85Z" transform="translate(-21 -14)"/><rect class="cls-41" x="140" y="43" width="14" height="14"/><path class="cls-42" d="M174,58V70H162V58h12m1-1H161V71h14V57Z" transform="translate(-21 -14)"/><rect class="cls-43" x="140" y="57" width="14" height="14"/><path class="cls-44" d="M174,72V84H162V72h12m1-1H161V85h14V71Z" transform="translate(-21 -14)"/><rect class="cls-45" x="140" y="71" width="14" height="14"/><path class="cls-46" d="M174,86V98H162V86h12m1-1H161V99h14V85Z" transform="translate(-21 -14)"/><rect class="cls-47" x="140" y="85" width="14" height="14"/><path class="cls-48" d="M174,100v12H162V100h12m1-1H161v14h14V99Z" transform="translate(-21 -14)"/><rect class="cls-49" x="140" y="29" width="14" height="14"/><path class="cls-50" d="M174,44V56H162V44h12m1-1H161V57h14V43Z" transform="translate(-21 -14)"/><rect class="cls-51" x="140" y="15" width="14" height="14"/><path class="cls-52" d="M174,30V42H162V30h12m1-1H161V43h14V29Z" transform="translate(-21 -14)"/><rect class="cls-53" x="126" y="15" width="14" height="14"/><path class="cls-54" d="M160,30V42H148V30h12m1-1H147V43h14V29Z" transform="translate(-21 -14)"/><rect class="cls-55" x="154" y="15" width="14" height="14"/><path class="cls-56" d="M188,30V42H176V30h12m1-1H175V43h14V29Z" transform="translate(-21 -14)"/><rect class="cls-57" x="182" y="28" width="14" height="14"/><path class="cls-58" d="M216,43V55H204V43h12m1-1H203V56h14V42Z" transform="translate(-21 -14)"/><rect class="cls-59" x="182" y="42" width="14" height="14"/><path class="cls-60" d="M216,57V69H204V57h12m1-1H203V70h14V56Z" transform="translate(-21 -14)"/><rect class="cls-61" x="182" y="56" width="14" height="14"/><path class="cls-62" d="M216,71V83H204V71h12m1-1H203V84h14V70Z" transform="translate(-21 -14)"/><rect class="cls-63" x="182" y="70" width="14" height="14"/><path class="cls-64" d="M216,85V97H204V85h12m1-1H203V98h14V84Z" transform="translate(-21 -14)"/><rect class="cls-65" x="210" y="28" width="14" height="14"/><path class="cls-66" d="M244,43V55H232V43h12m1-1H231V56h14V42Z" transform="translate(-21 -14)"/><rect class="cls-67" x="182" y="14" width="14" height="14"/><path class="cls-68" d="M216,29V41H204V29h12m1-1H203V42h14V28Z" transform="translate(-21 -14)"/><rect class="cls-69" x="196" y="14" width="14" height="14"/><path class="cls-70" d="M230,29V41H218V29h12m1-1H217V42h14V28Z" transform="translate(-21 -14)"/><rect class="cls-71" x="210" y="14" width="14" height="14"/><path class="cls-72" d="M244,29V41H232V29h12m1-1H231V42h14V28Z" transform="translate(-21 -14)"/><rect class="cls-73" x="196" y="42" width="14" height="14"/><path class="cls-74" d="M230,57V69H218V57h12m1-1H217V70h14V56Z" transform="translate(-21 -14)"/><rect class="cls-75" x="196" y="56" width="14" height="14"/><path class="cls-76" d="M230,71V83H218V71h12m1-1H217V84h14V70Z" transform="translate(-21 -14)"/><rect class="cls-77" x="210" y="56" width="14" height="14"/><path class="cls-78" d="M244,71V83H232V71h12m1-1H231V84h14V70Z" transform="translate(-21 -14)"/><rect class="cls-79" x="210" y="70" width="14" height="14"/><path class="cls-80" d="M244,85V97H232V85h12m1-1H231V98h14V84Z" transform="translate(-21 -14)"/><rect class="cls-81" x="238" y="70" width="14" height="14"/><path class="cls-82" d="M272,85V97H260V85h12m1-1H259V98h14V84Z" transform="translate(-21 -14)"/><rect class="cls-83" x="294" width="14" height="14"/><path class="cls-84" d="M328,15V27H316V15h12m1-1H315V28h14V14Z" transform="translate(-21 -14)"/><rect class="cls-85" x="294" y="14" width="14" height="14"/><path class="cls-86" d="M328,29V41H316V29h12m1-1H315V42h14V28Z" transform="translate(-21 -14)"/><rect class="cls-87" x="294" y="28" width="14" height="14"/><path class="cls-88" d="M328,43V55H316V43h12m1-1H315V56h14V42Z" transform="translate(-21 -14)"/><rect class="cls-89" x="294" y="42" width="14" height="14"/><path class="cls-90" d="M328,57V69H316V57h12m1-1H315V70h14V56Z" transform="translate(-21 -14)"/><rect class="cls-91" x="266" y="70" width="14" height="14"/><path class="cls-92" d="M300,85V97H288V85h12m1-1H287V98h14V84Z" transform="translate(-21 -14)"/><rect class="cls-93" x="280" y="70" width="14" height="14"/><path class="cls-94" d="M314,85V97H302V85h12m1-1H301V98h14V84Z" transform="translate(-21 -14)"/><rect class="cls-95" x="294" y="70" width="14" height="14"/><path class="cls-96" d="M328,85V97H316V85h12m1-1H315V98h14V84Z" transform="translate(-21 -14)"/><rect class="cls-97" x="294" y="56" width="14" height="14"/><path class="cls-98" d="M328,71V83H316V71h12m1-1H315V84h14V70Z" transform="translate(-21 -14)"/><rect class="cls-99" x="322" y="14" width="14" height="14"/><path class="cls-100" d="M356,29V41H344V29h12m1-1H343V42h14V28Z" transform="translate(-21 -14)"/><rect class="cls-101" x="336" y="14" width="14" height="14"/><path class="cls-102" d="M370,29V41H358V29h12m1-1H357V42h14V28Z" transform="translate(-21 -14)"/><rect class="cls-103" x="350" y="14" width="14" height="14"/><path class="cls-104" d="M384,29V41H372V29h12m1-1H371V42h14V28Z" transform="translate(-21 -14)"/><rect class="cls-105" x="322" y="28" width="14" height="14"/><path class="cls-106" d="M356,43V55H344V43h12m1-1H343V56h14V42Z" transform="translate(-21 -14)"/><rect class="cls-107" x="350" y="56" width="14" height="14"/><path class="cls-108" d="M384,71V83H372V71h12m1-1H371V84h14V70Z" transform="translate(-21 -14)"/><rect class="cls-109" x="322" y="42" width="14" height="14"/><path class="cls-110" d="M356,57V69H344V57h12m1-1H343V70h14V56Z" transform="translate(-21 -14)"/><rect class="cls-111" x="336" y="42" width="14" height="14"/><path class="cls-112" d="M370,57V69H358V57h12m1-1H357V70h14V56Z" transform="translate(-21 -14)"/><rect class="cls-113" x="350" y="42" width="14" height="14"/><path class="cls-114" d="M384,57V69H372V57h12m1-1H371V70h14V56Z" transform="translate(-21 -14)"/><rect class="cls-115" x="336" y="56" width="14" height="14"/><path class="cls-116" d="M370,71V83H358V71h12m1-1H357V84h14V70Z" transform="translate(-21 -14)"/><rect class="cls-117" x="336" y="70" width="14" height="14"/><path class="cls-118" d="M370,85V97H358V85h12m1-1H357V98h14V84Z" transform="translate(-21 -14)"/><rect class="cls-119" x="322" y="70" width="14" height="14"/><path class="cls-120" d="M356,85V97H344V85h12m1-1H343V98h14V84Z" transform="translate(-21 -14)"/><rect class="cls-121" x="350" y="70" width="14" height="14"/><path class="cls-122" d="M384,85V97H372V85h12m1-1H371V98h14V84Z" transform="translate(-21 -14)"/></svg>