<?xml version="1.0" standalone="no"?>
<!DOCTYPE svg PUBLIC "-//W3C//DTD SVG 20010904//EN"
 "http://www.w3.org/TR/2001/REC-SVG-20010904/DTD/svg10.dtd">
<svg version="1.0" xmlns="http://www.w3.org/2000/svg"
 width="1080.000000pt" height="1080.000000pt" viewBox="0 0 1080.000000 1080.000000"
 preserveAspectRatio="xMidYMid meet">
<metadata>
Created by potrace 1.11, written by Peter Selinger 2001-2013
</metadata>
<g transform="translate(0.000000,1080.000000) scale(0.100000,-0.100000)"
fill="#000000" stroke="none">
<path d="M3805 7553 l0 -1598 1590 0 1590 0 0 1598 0 1597 -1590 0 -1590 0 0
-1597z"/>
<path d="M4 5311 c-2 -2 -4 -721 -4 -1598 l0 -1593 1585 0 1585 0 0 1598 0
1597 -1581 0 c-869 0 -1583 -2 -1585 -4z"/>
<path d="M3807 5305 c-2 -5 -3 -723 -3 -1595 l1 -1585 1590 0 1590 0 0 1593
c0 1069 -3 1592 -10 1593 -5 1 -720 2 -1587 3 -1044 1 -1579 -2 -1581 -9z"/>
<path d="M7620 3718 l0 -1598 1590 0 1590 0 -2 1598 -3 1597 -1587 0 -1588 0
0 -1597z m2549 247 c107 -28 221 -97 309 -187 l42 -44 -76 -60 c-42 -32 -97
-75 -122 -95 l-45 -35 -44 48 c-91 97 -190 130 -290 97 -67 -22 -94 -99 -53
-152 26 -32 139 -126 305 -252 174 -132 233 -186 285 -261 79 -113 93 -284 32
-405 -90 -180 -279 -275 -527 -264 -151 7 -284 60 -381 151 -41 39 -134 162
-134 177 0 7 24 25 53 40 28 14 89 46 134 71 l83 44 21 -31 c41 -60 104 -119
154 -144 95 -49 217 -31 285 41 36 40 35 118 -4 169 -25 32 -166 152 -251 212
-74 52 -197 156 -258 218 -81 83 -134 183 -140 267 -19 278 299 480 622 395z
m-955 -34 c7 -28 -1 -1173 -8 -1226 -25 -162 -88 -253 -217 -312 -120 -56
-319 -50 -459 14 -85 39 -227 149 -219 170 5 14 216 193 226 193 4 0 28 -19
53 -41 55 -48 111 -76 167 -84 56 -6 88 9 110 54 16 33 17 86 19 636 1 330 2
603 3 606 1 3 73 5 161 6 138 0 160 -2 164 -16z"/>
</g>
</svg>
