<svg id="Layer_2" data-name="Layer 2" xmlns="http://www.w3.org/2000/svg" viewBox="0 0 21.14 21.91"><defs><style>.cls-1{fill:#fff;}</style></defs><title>sprint-40</title><g id="Layer_8" data-name="Layer 8"><path class="cls-1" d="M15.18,3.16H16V1.09H1.2V3.16H2v.53A12,12,0,0,0,4.93,12,11.93,11.93,0,0,0,2,20.26v.67H1.2V23H16V20.93h-.82v-.67A11.93,11.93,0,0,0,12.27,12a12,12,0,0,0,2.91-8.29Zm-4.29,8.28-.68.54.68.54c1.7,1.34,2.83,4.07,3,7.06H3.32c.15-3,1.29-5.72,3-7.06L7,12l-.67-.54c-1.7-1.35-2.84-4.07-3-7.07H13.88C13.72,7.37,12.59,10.09,10.89,11.44Zm-6.21-6h7.83a7.42,7.42,0,0,1-2.26,5.37,1.85,1.85,0,0,0-.51.41c-.61.91-.65,4.24-.65,4.39a2.35,2.35,0,0,1,1.38.69c1.65,1.58,2.13,1.77,2.19,2.92H4.92c0-1.15,1-2,2.19-2.92a3,3,0,0,1,1.36-.67l0,0c0-3.14-1-4.48-1-4.48l-.69-.41C5.48,9.68,4.8,7.72,4.68,5.44Z" transform="translate(-1.2 -1.09)"/></g><path class="cls-1" d="M18.36,6h.7v.31h-.7V7.46H18V6.31H15.85V6.1L18,2.92h.41ZM16.31,6H18V3.41l-.16.28Z" transform="translate(-1.2 -1.09)"/><path class="cls-1" d="M22.34,5.57A2.52,2.52,0,0,1,22,7a1.21,1.21,0,0,1-1,.5,1.19,1.19,0,0,1-1-.49,2.34,2.34,0,0,1-.37-1.42V4.8a2.52,2.52,0,0,1,.35-1.45,1.21,1.21,0,0,1,1-.49,1.22,1.22,0,0,1,1,.47,2.4,2.4,0,0,1,.37,1.41ZM22,4.75a2.17,2.17,0,0,0-.25-1.17.94.94,0,0,0-1.53,0,2.1,2.1,0,0,0-.26,1.15v.89a2.22,2.22,0,0,0,.26,1.18.86.86,0,0,0,.77.42.84.84,0,0,0,.75-.41A2.18,2.18,0,0,0,22,5.63Z" transform="translate(-1.2 -1.09)"/></svg>