<svg id="Layer_2" data-name="Layer 2" xmlns="http://www.w3.org/2000/svg" viewBox="0 0 22.51 21.91"><defs><style>.cls-1{fill:#fff;}</style></defs><title>sprint-200</title><g id="Layer_8" data-name="Layer 8"><path class="cls-1" d="M15.18,3.16H16V1.09H1.2V3.16H2v.53A12,12,0,0,0,4.93,12,11.93,11.93,0,0,0,2,20.26v.67H1.2V23H16V20.93h-.82v-.67A11.93,11.93,0,0,0,12.27,12a12,12,0,0,0,2.91-8.29Zm-4.29,8.28-.68.54.68.54c1.7,1.34,2.83,4.07,3,7.06H3.32c.15-3,1.29-5.72,3-7.06L7,12l-.67-.54c-1.7-1.35-2.84-4.07-3-7.07H13.88C13.72,7.37,12.59,10.09,10.89,11.44Zm-6.21-6h7.83a7.42,7.42,0,0,1-2.26,5.37,1.85,1.85,0,0,0-.51.41c-.61.91-.65,4.24-.65,4.39a2.35,2.35,0,0,1,1.38.69c1.65,1.58,2.13,1.77,2.19,2.92H4.92c0-1.15,1-2,2.19-2.92a3,3,0,0,1,1.36-.67l0,0c0-3.14-1-4.48-1-4.48l-.69-.41C5.48,9.68,4.8,7.72,4.68,5.44Z" transform="translate(-1.2 -1.09)"/></g><path class="cls-1" d="M18.21,7.3H16V7.08L17.2,5.69a3.77,3.77,0,0,0,.42-.58,1,1,0,0,0,.12-.45.72.72,0,0,0-.2-.53.7.7,0,0,0-.55-.2.75.75,0,0,0-.58.23.81.81,0,0,0-.22.6H15.9A1.12,1.12,0,0,1,16,4.21a.92.92,0,0,1,.39-.39A1.1,1.1,0,0,1,17,3.68a1,1,0,0,1,.77.26.88.88,0,0,1,.28.7,1.17,1.17,0,0,1-.16.55,4.42,4.42,0,0,1-.55.74l-1,1.12h1.87Z" transform="translate(-1.2 -1.09)"/><path class="cls-1" d="M20.92,5.81A1.93,1.93,0,0,1,20.64,7a.94.94,0,0,1-.82.39A1,1,0,0,1,19,7a1.94,1.94,0,0,1-.29-1.12V5.21A1.9,1.9,0,0,1,19,4.07a1.06,1.06,0,0,1,1.63,0,1.89,1.89,0,0,1,.29,1.11Zm-.3-.64a1.69,1.69,0,0,0-.2-.93.65.65,0,0,0-.6-.31.67.67,0,0,0-.6.3,1.72,1.72,0,0,0-.21.91v.7a1.75,1.75,0,0,0,.21.94.66.66,0,0,0,.6.32.67.67,0,0,0,.6-.31,1.78,1.78,0,0,0,.2-.93Z" transform="translate(-1.2 -1.09)"/><path class="cls-1" d="M23.71,5.81A2,2,0,0,1,23.43,7a1,1,0,0,1-.82.39A1,1,0,0,1,21.8,7a1.87,1.87,0,0,1-.29-1.12V5.21a1.9,1.9,0,0,1,.28-1.14.94.94,0,0,1,.82-.39,1,1,0,0,1,.81.37,2,2,0,0,1,.29,1.11Zm-.3-.64a1.78,1.78,0,0,0-.2-.93.65.65,0,0,0-.6-.31.67.67,0,0,0-.6.3,1.63,1.63,0,0,0-.21.91v.7a1.75,1.75,0,0,0,.21.94.66.66,0,0,0,.6.32.67.67,0,0,0,.6-.31,1.78,1.78,0,0,0,.2-.93Z" transform="translate(-1.2 -1.09)"/></svg>